Coordinates
version=1
nRows=9
nColumns=42
inDegrees=yes

Units are S.I. units (second, meters, Newtons, ...)
If the header above contains a line with 'inDegrees', this indicates whether rotational values are in degrees (yes) or radians (no).

endheader
time	pelvis_tilt	pelvis_list	pelvis_rotation	pelvis_tx	pelvis_ty	pelvis_tz	hip_flexion_r	hip_adduction_r	hip_rotation_r	knee_angle_r	knee_angle_r_beta	ankle_angle_r	subtalar_angle_r	mtp_angle_r	hip_flexion_l	hip_adduction_l	hip_rotation_l	knee_angle_l	knee_angle_l_beta	ankle_angle_l	subtalar_angle_l	mtp_angle_l	lumbar_extension	lumbar_bending	lumbar_rotation	sh_tx_r	sh_ty_r	sh_tz_r	sh_plane_elev_r	sh_elev_r	sh_axial_rot_r	elbow_flex_r	pro_sup_r	sh_tx_l	sh_ty_l	sh_tz_l	sh_plane_elev_l	sh_elev_l	sh_axial_rot_l	elbow_flex_l	pro_sup_l
      4.49152540	     -3.26003210	     -0.16089433	      0.23761401	      0.31399766	      0.93123186	     -0.05611491	      0.75509221	     -5.80623710	      0.44950869	      1.66375986	      0.02903809	      3.37730455	      1.20944848	     -7.49999987	      0.38602009	     -0.51197939	     -3.37292186	      0.92761980	      0.01619002	      9.98116860	     -1.80684194	     -7.49999987	     -1.34494089	     -5.13959318	     -4.10709328	      0.00053284	     -0.01081355	     -0.00459903	    -29.86167279	     25.25811127	    -10.83269553	     35.63939126	     44.01440552	      0.00145490	     -0.00664433	     -0.00522333	     55.19186650	     11.57721683	     -1.44501876	     10.43573596	     44.62597449
      4.50847460	     -3.26343230	     -0.16332948	      0.35572601	      0.31809877	      0.93145453	     -0.06079455	      0.71983791	     -5.80963181	      0.31710328	      1.67472517	      0.02922947	      3.43193281	      1.18012179	     -7.49999987	      0.42503077	     -0.54141246	     -3.39413509	      0.96330631	      0.01681287	      9.85283900	     -1.93670489	     -7.49999987	     -1.28995665	     -4.94626184	     -4.40782720	      0.00220585	     -0.01168368	     -0.00452752	    -30.88468469	     23.68019010	     -8.90904670	     35.44922848	     45.48371086	      0.00222509	     -0.00661825	     -0.00523312	     52.52116707	     11.27924672	     -0.00797348	     10.96509425	     46.10388652
      4.52542370	     -3.23950806	     -0.20840126	      0.34585588	      0.31398400	      0.92884680	     -0.05613821	      0.76256189	     -5.68490823	      0.42485097	      1.69320300	      0.02955197	      3.49201097	      0.95457178	     -7.49999987	      0.46774418	     -0.64724603	     -3.62967003	      1.01805859	      0.01776847	      9.94271413	     -1.91986817	     -7.49999987	     -1.65313804	     -4.80884964	     -4.76188756	      0.00065960	     -0.01256856	     -0.00472313	    -29.22676316	     22.09058144	     -8.36417319	     33.85082557	     46.60315684	     -0.00044148	     -0.00637571	     -0.00505535	     53.45024297	     11.81031398	     -1.03486521	     10.86649379	     46.11888202
      4.54237290	     -3.08912627	     -0.18767727	      0.45962330	      0.31801349	      0.93536564	     -0.06100618	      0.52459680	     -5.71968978	      0.20653273	      1.67197871	      0.02918153	      3.52983858	      1.11512405	     -7.49999987	      0.34294852	     -0.64677115	     -3.72538408	      1.03938962	      0.01814077	      9.62541092	     -1.88969118	     -7.49999987	     -1.77079923	     -4.57692834	     -4.82381314	      0.00150421	     -0.01366774	     -0.00465225	    -29.12193140	     20.95094583	     -6.65790157	     32.63756019	     46.83374127	      0.00069870	     -0.00686511	     -0.00498936	     52.29319854	     11.59624931	     -0.16854386	     11.17521670	     46.15426263
      4.55932200	     -3.04621786	     -0.17924731	      0.37802003	      0.31407347	      0.93536537	     -0.05637107	      0.52921591	     -5.67370445	      0.22158803	      1.64979446	      0.02879435	      3.55412572	      1.24571154	     -7.49999987	      0.32821687	     -0.67420860	     -4.14820079	      1.06507888	      0.01858913	      9.58307726	     -1.70182495	     -7.49999987	     -1.77104010	     -4.42683576	     -4.62566237	      0.00195860	     -0.01458584	     -0.00466800	    -29.55456034	     19.70637409	     -5.56780276	     32.12336313	     47.46402803	      0.00299675	     -0.00706257	     -0.00503572	     49.54776530	     11.41578758	      0.48300840	     12.15496224	     47.06575442
      4.57627120	     -2.96181564	     -0.18986632	      0.32672091	      0.31394156	      0.93540322	     -0.05608444	      0.48281672	     -5.59812107	      0.31519885	      1.63231764	      0.02848932	      3.49331462	      1.12177038	     -7.49999987	      0.28935682	     -0.73161322	     -4.38763310	      1.06762724	      0.01863361	      9.27906141	     -1.71871540	     -7.49999987	     -1.98425220	     -4.24933043	     -5.61296963	      0.00314449	     -0.01519302	     -0.00469491	    -29.93097041	     18.06629584	     -4.48474375	     31.90679842	     48.37460003	     -0.00013754	     -0.00734671	     -0.00482570	     48.79658272	     11.50587435	      0.06768865	     11.98741471	     47.86182959
      4.59322030	     -2.73418948	     -0.19043911	      0.30454427	      0.31374238	      0.93860907	     -0.05644643	      0.23851474	     -5.55923910	      0.18709614	      1.56264363	      0.02727328	      3.34378200	      1.31428322	     -7.49999987	      0.08713297	     -0.75347990	     -4.51439975	      1.02790765	      0.01794037	      9.08265811	     -1.51363114	     -7.49999987	     -2.55263847	     -4.04334547	     -6.39127017	      0.00219684	     -0.01580075	     -0.00485684	    -29.22970967	     16.28471713	     -4.47020917	     31.44967007	     51.37864401	     -0.00353809	     -0.00775863	     -0.00464046	     49.81369276	     11.89732367	     -1.95829107	     11.84912421	     48.59792737
      4.61016950	     -2.56719432	     -0.23982093	      0.23824484	      0.31353654	      0.93541679	     -0.05605908	      0.09525844	     -5.45636519	      0.18892541	      1.50390119	      0.02624803	      3.26771551	      1.40599792	     -7.49999987	     -0.07299766	     -0.83009381	     -4.77650554	      0.99933623	      0.01744171	      9.10320725	     -1.39986122	     -7.49999987	     -2.74151898	     -3.77324554	     -7.04571484	      0.00221910	     -0.01627951	     -0.00502596	    -30.07319346	     14.57364252	     -3.45171441	     31.26779314	     51.71716302	     -0.00422753	     -0.00793939	     -0.00463004	     47.24538673	     11.71997308	     -2.16039418	     12.77089423	     49.20619314
      4.62711860	     -2.42444873	     -0.24890269	      0.13007074	      0.31352328	      0.93224919	     -0.05636873	     -0.00570684	     -5.40927187	      0.52612430	      1.51577292	      0.02645523	      3.02328197	      0.98202878	     -7.49999987	     -0.21671544	     -0.85360572	     -5.07408309	      0.99700744	      0.01740106	      9.13041315	     -1.17161047	     -7.49999987	     -2.89939804	     -3.52389535	     -7.68462024	      0.00239214	     -0.01666229	     -0.00520450	    -31.95155957	     12.89650845	     -2.37268562	     31.37054630	     53.02636559	     -0.00538340	     -0.00839203	     -0.00471508	     44.04384647	     11.50364554	     -3.96827804	     14.41563437	     50.03149715
